<?xml version="1.0" standalone="no"?>
<!DOCTYPE svg PUBLIC "-//W3C//DTD SVG 20010904//EN"
 "http://www.w3.org/TR/2001/REC-SVG-20010904/DTD/svg10.dtd">
<svg version="1.0" xmlns="http://www.w3.org/2000/svg"
 width="20.000000pt" height="20.000000pt" viewBox="0 0 512.000000 512.000000"
 preserveAspectRatio="xMidYMid meet">

<g transform="translate(0.000000,512.000000) scale(0.100000,-0.100000)"
fill="#000000" stroke="none">
<path d="M1934 4467 c-22 -8 -57 -25 -78 -39 -58 -40 -955 -876 -1508 -1407
-336 -322 -343 -332 -343 -461 0 -129 7 -139 343 -461 585 -562 1453 -1370
1514 -1410 150 -100 359 -38 450 133 23 42 23 49 28 462 l5 419 130 -2 c162
-3 448 -25 648 -51 739 -95 1343 -316 1622 -595 85 -85 132 -162 147 -241 23
-122 28 -134 61 -154 39 -24 68 -25 107 -5 55 29 61 55 50 228 -35 544 -220
1020 -567 1457 -89 113 -305 327 -423 421 -467 372 -1013 586 -1635 642 l-140
12 -5 420 c-5 414 -5 421 -28 463 -58 109 -150 170 -268 177 -43 3 -84 0 -110
-8z"/>
</g>
</svg>
